# xmcd CD database file
#
# Track frame offsets:
#	150
#	17599
#	29980
#	47033
#	62550
#
# Disc length: 1049 seconds
#
# Revision: 0
# Processed by: cddbd v1.5.2PL0 Copyright (c) Steve Scherf et al.
# Submitted via: CDex 1.70beta2
#
DISCID=3e041705
DTITLE=Fernanda Takai and Maki Nomiya - MAKI-TAKAI NO JETLAG
DYEAR=2009
DGENRE=Rhythmic Soul
TTITLE0=Nagoya
TTITLE1=Hitori Ni Shitene
TTITLE2=Saudade
TTITLE3=A Message Song
TTITLE4=Kobune Live
EXTD=YEAR: 2009
EXTT0=
EXTT1=
EXTT2=
EXTT3=
EXTT4=
PLAYORDER=
